<svg width="156" height="60" fill="none" xmlns="http://www.w3.org/2000/svg"><path d="M28.585 20.815v5.732h9.1v2.96h-9.1v7.22h-3.5V17.875h13.763v2.931H28.585v.01zm25.978 15.912l-3.852-5.518a6.71 6.71 0 01-.726.028h-4.252v5.49h-3.499V17.875h7.751c1.629 0 3.053.27 4.271.81 1.21.54 2.14 1.312 2.792 2.317.642 1.004.968 2.196.968 3.582 0 1.414-.345 2.643-1.033 3.666-.689 1.024-1.684 1.787-2.978 2.29l4.336 6.196h-3.778v-.01zM53.298 21.81c-.79-.642-1.945-.968-3.47-.968h-4.095v7.51h4.094c1.526 0 2.68-.326 3.471-.987.791-.651 1.182-1.582 1.182-2.791.01-1.2-.391-2.122-1.182-2.764zM63.935 34.8c-1.451-1.46-2.177-3.554-2.177-6.29V17.876h3.498V28.38c0 3.694 1.601 5.546 4.793 5.546 3.173 0 4.764-1.852 4.764-5.546V17.875h3.443v10.636c0 2.726-.726 4.82-2.168 6.29-1.443 1.46-3.471 2.196-6.077 2.196-2.586 0-4.615-.735-6.076-2.196zm36.539 1.927l-.028-12.497-6.197 10.338h-1.563l-6.197-10.18v12.33h-3.34V17.875h2.884l7.5 12.497 7.351-12.497h2.884l.028 18.852h-3.322zm12.013-.987c-1.545-.837-2.754-1.99-3.638-3.47-.884-1.48-1.322-3.136-1.322-4.969 0-1.833.438-3.49 1.322-4.969a9.26 9.26 0 013.638-3.47c1.545-.838 3.275-1.256 5.192-1.256 1.917 0 3.657.418 5.202 1.256 1.544.837 2.754 1.99 3.638 3.461.884 1.47 1.321 3.136 1.321 4.978 0 1.852-.437 3.508-1.321 4.979-.884 1.47-2.094 2.623-3.638 3.46-1.545.838-3.276 1.257-5.202 1.257-1.926 0-3.647-.419-5.192-1.256zm8.588-2.66a6.185 6.185 0 002.373-2.373c.577-1.014.866-2.15.866-3.406 0-1.256-.289-2.391-.866-3.405a6.185 6.185 0 00-2.373-2.373c-1.005-.568-2.14-.847-3.396-.847-1.256 0-2.391.28-3.396.847a6.185 6.185 0 00-2.373 2.373c-.577 1.014-.865 2.15-.865 3.405 0 1.257.288 2.392.865 3.406a6.185 6.185 0 002.373 2.373c1.005.567 2.131.846 3.396.846 1.266 0 2.391-.288 3.396-.846zm12.109 3.292c-1.358-.41-2.428-.958-3.219-1.647l1.209-2.717c.773.614 1.722 1.107 2.839 1.498 1.125.391 2.251.577 3.377.577 1.396 0 2.447-.223 3.136-.67.689-.446 1.033-1.042 1.033-1.777 0-.54-.196-.986-.577-1.33-.391-.354-.875-.624-1.47-.82a34.23 34.23 0 00-2.42-.67c-1.433-.344-2.596-.679-3.489-1.023a5.846 5.846 0 01-2.289-1.6c-.642-.726-.958-1.713-.958-2.95a4.99 4.99 0 01.846-2.838c.568-.847 1.415-1.526 2.559-2.038 1.145-.503 2.531-.754 4.188-.754 1.144 0 2.279.14 3.396.428 1.116.289 2.075.698 2.884 1.238l-1.098 2.717a10.907 10.907 0 00-2.586-1.107 9.668 9.668 0 00-2.615-.382c-1.387 0-2.41.233-3.08.698-.67.465-1.014 1.089-1.014 1.861 0 .54.195.977.577 1.321.39.345.874.614 1.47.81.595.195 1.396.419 2.419.67 1.396.325 2.55.66 3.443 1.005a5.835 5.835 0 012.298 1.6c.633.717.959 1.684.959 2.913a4.955 4.955 0 01-.847 2.828c-.568.847-1.424 1.517-2.568 2.02-1.154.502-2.55.753-4.197.753a13.828 13.828 0 01-4.206-.614zM75.35 43.156c.474.27.847.642 1.116 1.126.27.484.4 1.033.4 1.656 0 .624-.13 1.173-.4 1.657-.27.483-.642.856-1.116 1.126-.475.27-1.005.4-1.591.4a2.91 2.91 0 01-1.406-.335 2.51 2.51 0 01-1.004-.968v1.238h-.81v-8.822h.847v3.76c.26-.4.595-.708 1.005-.922.41-.214.865-.316 1.368-.316a3.37 3.37 0 011.59.4zm-.465 4.913c.353-.205.632-.493.837-.865.205-.372.307-.8.307-1.275 0-.474-.102-.903-.307-1.275a2.205 2.205 0 00-.837-.865 2.342 2.342 0 00-1.192-.307 2.31 2.31 0 00-1.19.307 2.121 2.121 0 00-.829.865 2.72 2.72 0 00-.307 1.275c0 .475.103.903.307 1.275.205.372.475.66.828.865.354.205.754.307 1.192.307.437 0 .837-.102 1.19-.307zm9.148-1.869h-5.23c.047.651.299 1.172.745 1.573.447.4 1.024.604 1.712.604.391 0 .745-.065 1.07-.204.326-.14.605-.345.847-.614l.475.549c-.28.335-.624.586-1.043.763-.418.176-.874.26-1.367.26-.642 0-1.21-.14-1.703-.41a2.966 2.966 0 01-1.163-1.134 3.225 3.225 0 01-.419-1.638c0-.614.13-1.154.4-1.638s.633-.856 1.089-1.126c.465-.27.986-.4 1.563-.4s1.098.13 1.554.4c.456.27.819.642 1.08 1.126.26.484.39 1.033.39 1.647v.242zm-4.531-2.13c-.41.38-.642.883-.698 1.507h4.429c-.056-.624-.288-1.117-.698-1.508-.41-.39-.921-.577-1.526-.577-.595 0-1.098.186-1.507.577zm10.152-.698c.437.41.651 1.014.651 1.814v3.88h-.81v-.976c-.186.325-.465.576-.837.763-.372.186-.81.27-1.312.27-.698 0-1.247-.168-1.666-.503-.409-.335-.614-.772-.614-1.321 0-.53.196-.959.577-1.284.382-.326.996-.484 1.833-.484h1.982v-.382c0-.54-.148-.949-.456-1.228-.307-.28-.744-.419-1.32-.419-.401 0-.773.065-1.145.196-.373.13-.68.307-.94.54l-.382-.633c.317-.27.698-.475 1.145-.624a4.402 4.402 0 011.405-.223c.828.01 1.451.214 1.889.614zm-.95 4.764c.345-.214.596-.53.764-.949v-1.024h-1.964c-1.07 0-1.6.373-1.6 1.117 0 .363.14.651.419.865.279.214.66.317 1.163.317.465 0 .874-.112 1.219-.326zm9.528-5.322v6.253h-.81v-1.145c-.223.382-.53.68-.911.884-.391.214-.828.317-1.33.317-.82 0-1.462-.223-1.927-.68-.475-.455-.707-1.125-.707-2v-3.629h.847v3.545c0 .66.158 1.154.483 1.498.326.345.791.512 1.387.512.66 0 1.172-.205 1.554-.605.381-.4.567-.958.567-1.675v-3.284h.847v.009zm5.648 5.871a1.62 1.62 0 01-.586.325 2.378 2.378 0 01-.735.112c-.586 0-1.033-.158-1.358-.475-.326-.316-.475-.763-.475-1.34V43.52h-1.117v-.716h1.117v-1.359h.847v1.368h1.898v.717h-1.898v3.73c0 .373.093.662.279.848.186.195.456.288.8.288a1.5 1.5 0 00.503-.084c.158-.055.307-.13.418-.232l.307.605zm6.66-5.872l-3.126 7.006c-.252.586-.549 1.005-.875 1.247a2 2 0 01-1.2.372 2.5 2.5 0 01-.847-.14 1.92 1.92 0 01-.68-.427l.391-.633c.317.316.698.474 1.145.474.288 0 .53-.074.735-.232.205-.158.391-.428.568-.81l.269-.605-2.791-6.243h.875l2.354 5.313 2.354-5.313h.828v-.01zm4.525 6.094c-.465-.149-.828-.335-1.088-.55l.381-.669c.261.205.586.372.986.502.401.13.81.196 1.238.196.568 0 .996-.093 1.265-.27a.854.854 0 00.41-.754c0-.232-.075-.41-.223-.54a1.505 1.505 0 00-.568-.297 9.197 9.197 0 00-.912-.196 12.336 12.336 0 01-1.228-.288 1.725 1.725 0 01-.791-.502c-.214-.233-.326-.568-.326-.987 0-.52.214-.949.652-1.284.437-.335 1.042-.502 1.814-.502.4 0 .81.056 1.21.158.4.111.735.251.995.419l-.372.679c-.512-.354-1.126-.54-1.842-.54-.54 0-.949.093-1.219.289-.27.195-.41.437-.41.753 0 .242.075.428.233.568.158.14.344.251.577.316.233.065.549.14.949.205.502.093.903.186 1.2.288.298.093.559.261.773.484.214.233.316.55.316.95 0 .548-.223.976-.679 1.302-.456.326-1.089.484-1.898.484a4.71 4.71 0 01-1.443-.214zm10.644-5.46c.465.456.698 1.117.698 1.991v3.63h-.847v-3.546c0-.651-.158-1.145-.484-1.489-.326-.344-.791-.511-1.386-.511-.67 0-1.21.204-1.601.604s-.586.959-.586 1.657v3.284h-.847v-8.82h.847v3.665c.233-.363.549-.642.949-.846.4-.196.865-.298 1.387-.298.781 0 1.405.223 1.87.679zm3.936 5.263a2.977 2.977 0 01-1.144-1.135 3.227 3.227 0 01-.419-1.638c0-.614.14-1.154.419-1.637.279-.484.66-.857 1.144-1.126.484-.27 1.024-.4 1.629-.4.604 0 1.144.13 1.628.4s.865.642 1.135 1.126c.27.483.41 1.032.41 1.637 0 .614-.14 1.163-.41 1.638-.27.484-.651.865-1.135 1.135a3.28 3.28 0 01-1.628.41c-.605 0-1.145-.13-1.629-.41zm2.829-.642c.354-.205.623-.493.828-.865.196-.373.298-.8.298-1.275 0-.475-.102-.903-.298-1.275a2.116 2.116 0 00-.828-.865 2.344 2.344 0 00-1.191-.307 2.34 2.34 0 00-1.191.307 2.116 2.116 0 00-.828.865 2.71 2.71 0 00-.307 1.275c0 .474.102.902.307 1.275.204.372.474.66.828.865a2.34 2.34 0 001.191.307 2.34 2.34 0 001.191-.307zm8.505-4.913c.474.27.846.642 1.116 1.126.27.484.4 1.033.4 1.657 0 .623-.13 1.181-.4 1.665s-.642.856-1.107 1.126c-.475.27-1.005.4-1.601.4-.502 0-.967-.102-1.367-.316a2.643 2.643 0 01-1.005-.921v3.489h-.847v-8.56h.809v1.237c.252-.41.587-.726 1.005-.95a2.93 2.93 0 011.405-.334 3.15 3.15 0 011.592.381zm-.466 4.913c.354-.204.633-.493.838-.865.205-.372.307-.8.307-1.275a2.57 2.57 0 00-.307-1.265 2.205 2.205 0 00-.838-.865 2.337 2.337 0 00-1.191-.308 2.32 2.32 0 00-1.191.307 2.129 2.129 0 00-.828.866 2.57 2.57 0 00-.307 1.265c0 .475.102.903.307 1.275.205.372.475.66.828.865.354.205.754.308 1.191.308.447 0 .838-.103 1.191-.308z" fill="#000"/><path d="M11.743 24.734c1.144 0 6.17-.447 6.988.205.12.083.447.167.735.372.037.037-.037.12.121.12.037.038.168 0 .168 0 .288.122.94.29 1.386.531.084 0 0 .121.158.121.084.037.652.205.698.53.037.615-.577.373-.698.373-.325 0-.53-.121-.735-.242-2.652-.038-8.542.651-10.952 1.023-.363.121-.326.652-.447 1.024 0 .037-.12-.037-.12.167 0 .326-.121.53-.289.856-.121.289-.084.41-.167.652 0 .037-.121.037-.121.204-.038.289-.038.41-.121.698-.084.205-.205.205-.363.698-.121.326-.168.773-.289 1.145-.037.242-.242.288-.325.493-.038.084 0 .205 0 .363-.121.53-.615 1.554-.736 2.326 2.82-.12 8.217-.493 11.24-.363 0 .205.41.037.41.289.242.037.289.409.447.446.372-.037.651.084.903.289.167.12.614 0 .735.167.083.168.083.084.372.205.205.037.698.326 1.023.651-.372.82-1.023.41-1.674.493-1.796.289-7.435.494-9.64.773-.205 0-.41-.038-.652 0-.567.083-1.842.204-2.698.325-.326.038-.773.084-1.061.168-.121.037-.41.084-.614.167-.168.084-.205.289-.447.326-.856.205-1.712 0-2.41-.326-.037-.037 0-.167-.12-.167-.168 0-.531-.205-.773-.326-.493-.242-.94-.242-1.35-.651-.083-.168-.083-.41-.325-.41.084-.12.242-.288 0-.288.205-.568.819-.614 1.228-.856-.167-1.145.205-2.084.326-3.108.037-.568.205-1.182.41-1.842 0-.037-.038-.242 0-.289 0-.084.12 0 .12 0 .121-.41.121-.772.205-1.06 0-.084 0-.736.168-.82.083-.083.493-.94.493-1.228 0-.288-.159-.372-.159-.167-.204-.037-.083-.205 0-.205-.037-.772-.372.41-.94 0 .038-.772-.204-.158-.446-.446-.12-.53.242-.494.168-1.024.362 0 .409-.326.735-.577.204-.12.772-.447 1.349-.447.41-.94.735-1.916 1.06-2.903 0-.037-.037-.325 0-.325 0-.038.122 0 .122 0 .083-.084-.038-.326 0-.373 0 0 .167.038.167 0 .084-.037-.037-.288 0-.288.084-.037.205 0 .205 0 0-.084-.037-.363 0-.41 0 0 .12.038.12 0 .205-.446.29-1.06.447-1.516.038-.037.242-.084.289-.121.037-.121-.084-.41 0-.577.037-.121.41-.289.493-.53 0-.038-.037-.242 0-.289 0-.037.121 0 .121 0 .037-.084-.037-.326 0-.372 0 0 .121.037.121 0 .037-.037-.037-.242 0-.289.205-.12.242-.12.326-.363.037-.037-.038-.241 0-.288.242-.372.372-.651.614-1.107.12-.168.325-.289.446-.447.038-.037-.037-.288 0-.326.168-.12.326-.12.326-.362-.53-.121-.651.242-.772.493-.447-.037-.121.614-.493.651-.363-.167-.652.084-1.024 0-.326-.037-.493-.167-.772-.288-.037-.038.037-.168-.121-.168-.037 0-.41.037-.493 0v-.205c-.447-.167-.94-.12-1.35-.493.168-.242-.288-.53-.242-.902 0-.289.326-.698.698-1.145a2.47 2.47 0 01.493-.493c.038-.037.242.037.289 0 .046-.037.084-.372.12-.41.085 0 .327.121.373 0 0 0-.037-.12 0-.12.037-.038.242.037.242 0 .205-.242.53-.242.94-.53.084-.085 0-.159.167-.159.168-.037.289-.084.447-.167.12-.084 1.024-.326 1.517-.494.037-.037.242.038.288 0 0-.037-.037-.167 0-.167.577-.121 1.312 0 2.085-.168.288-.083 1.228-.325 1.963-.167.12 0 .204.167.325.167.121 0 .205-.204.41-.167 0 0 .084.167.167.167.736.038 2.085.038 2.857.168 0 0 .084.242.168.167.12-.167.083-.037.288 0 .41.038.735.084 1.228.121.037.038.289 0 .326 0 .205.373 1.591.41 1.963 1.061.242-.037.373-.447.577-.698.158-.242.363-.446.568-.651.493-.493.772-1.145 1.228-1.228.242-.038.242.12.326.167.084 0 .12-.167.12-.167.326.037.82.12.903.735.41-.037.614.037.94.158.037 0 .288.326.326.326.084 0 .12-.242.288-.168.084.037.242.288.289.326.12.037.288-.037.446 0 .038 0 0 .12.121.12.242.038.289.122.493.205.038.53-.409.857-.614 1.145-.288.41-.53.614-.735.902-.12.084-.288.698-.493.698 0 0-.493.494-.568.652-.037.037.038.325 0 .372-.037.046-.241.084-.372.12-.084.206-.12.494-.242.699-.037.084-.288.167-.288.205-.158.288-.158.493-.326.818-.037.084-.167-.037-.167.168 0 .205-.242.205-.326.577 0 .12-.12.446-.242.651-.12.205-.242.977-.614 1.35-.205-.084-.288-.243-.288-.568-.122.167-.205.325-.494.41.038 0-.083-.243-.167-.243s-.121.037-.121.242c-.289-.205-.577-.41-.326-.698-.53.326-1.023 0-1.144-.651-.326 0-.168.493-.494.447-.083-.205-.325-.289-.567-.289.12-.205.084-.363-.168-.363.038-2 .82-3.145 1.554-4.41-.446-.53-1.144-.289-1.712-.373-1.228-.12-2.735-.325-3.759 0-.037.615.698.038.288.373.121.493.084.977-.158 1.349-.083.167-.167.41-.242.698-.204.325-.41.698-.446.977-.037.167 0 .288 0 .363-.037.083-.289.204-.372.288-.084.242-.084.372-.121.614-.038.037 0 .289 0 .326-.205.205-.326.242-.41.651-.084.084 0 .205 0 .289-.084.12-.288.288-.325.41-.038.036.037.241 0 .288-.121.167-.084.167-.121.409-.038.121-.168.372-.373.651-.083.159-.204.159-.325.289-.038.084.083.372 0 .41-.084.083-.242.288-.242.446 0 0 .204.205 0 .205-.326.818-.577 1.674-.903 2.53.242.345.577.224.94.224zM2.754 35.89c-.037.242.121.614.158.325.047-.242-.12-.614-.158-.325zM7.37 20.156c-.084.084.083.326 0 .493-.038.037-.242.084-.289.158-.084.168.168.447.121.53 0 .038-.205.205-.242.289a4.565 4.565 0 00-.326.698c-.037.288-.037.372-.12.53-.205.326-.168.447 0 .698-.494.205-.698.651-.652 1.517-.53.037-.037 1.265-.698 1.144.038.289.084.856 0 1.266 0 0-.12-.037-.204 0-.038.037-.084.41-.168.447-.167.288 0 .53-.12.856-.038.037-.243.12-.29.167-.037.121.038.326-.12.326v1.023c-.242 0-.158.205-.242.373-.037.083-.205.241-.242.325-.121.242-.037.493-.168.652-.204.325-.167.772-.167 1.386-.326.288-.205.903-.41 1.145-.12.204.038.614-.12.734-.121.084.037.736.12.652-.037-.372.038-.614.289-.651.037.12 0 .325.12.325.168-.446-.204-.41-.12-.856.205 0 .326-.084.447-.205.12-.772-.084-1.144.493-1.674-.205-.652.204-.856.12-1.508.29.037.29-.242.41-.325.084-.326-.167-.373-.12-.652.492 0 .204-.41.12-.735.242 0 .289-.205.493-.168.084-.288-.167-.576-.12-.697 0 0 .241-.121.241-.168.037-.12-.167-.204-.12-.326 0-.037.288-.12.325-.167.037-.046-.037-.242 0-.288.12-.242.326-.363.41-.615-.447-.325.446-1.023 0-1.312.241 0 .446.038.492-.12-.12 0-.167-.038-.167-.205 0-.326.288-.447 0-.698.121-.084.167-.168.167-.326.652.084-.204-.493.447-.372-.242-.493 0-.651.242-.977 0-.242-.037-.41-.12-.53.167-.205.371-.326.492-.53-.083.12-.204-.085-.204-.168 0 0 .204.037.204 0 .037-.038.121-.494.121-.53.121-.168.121-.29 0-.447.242-.205.242-.577.447-.856-.205 0-.205-.242-.447-.205-.242.205.037.447 0 .577 0 .046-.325-.037-.325 0z" fill="#E47F9E"/></svg>